<mxfile host="Electron" agent="Mozilla/5.0 (Windows NT 10.0; Win64; x64) AppleWebKit/537.36 (KHTML, like Gecko) draw.io/25.0.2 Chrome/128.0.6613.186 Electron/32.2.5 Safari/537.36" version="25.0.2">
  <diagram name="Page-1" id="AbJqoxlXJ1mleEy6f7yn">
    <mxGraphModel dx="819" dy="488" grid="1" gridSize="10" guides="1" tooltips="1" connect="1" arrows="1" fold="1" page="1" pageScale="1" pageWidth="827" pageHeight="1169" math="0" shadow="0">
      <root>
        <mxCell id="0" />
        <mxCell id="1" parent="0" />
        <mxCell id="0FnL3UWyqO_r0SxXpMAl-1" value="" style="rounded=1;whiteSpace=wrap;html=1;" vertex="1" parent="1">
          <mxGeometry x="200" y="280" width="320" height="170" as="geometry" />
        </mxCell>
        <mxCell id="0FnL3UWyqO_r0SxXpMAl-8" style="edgeStyle=orthogonalEdgeStyle;rounded=0;orthogonalLoop=1;jettySize=auto;html=1;exitX=1;exitY=0.5;exitDx=0;exitDy=0;entryX=0.5;entryY=0;entryDx=0;entryDy=0;" edge="1" parent="1" source="0FnL3UWyqO_r0SxXpMAl-2" target="0FnL3UWyqO_r0SxXpMAl-4">
          <mxGeometry relative="1" as="geometry" />
        </mxCell>
        <mxCell id="0FnL3UWyqO_r0SxXpMAl-2" value="&lt;font face=&quot;Times New Roman&quot;&gt;Simplified&lt;/font&gt;&lt;div&gt;&lt;font face=&quot;Times New Roman&quot;&gt;Formula&lt;/font&gt;&lt;/div&gt;&lt;div&gt;&lt;font face=&quot;Times New Roman&quot;&gt;&lt;i&gt;f&lt;sub&gt;s&lt;/sub&gt;&lt;/i&gt;(&lt;i&gt;x-m&lt;/i&gt;)&lt;/font&gt;&lt;/div&gt;" style="rounded=0;whiteSpace=wrap;html=1;" vertex="1" parent="1">
          <mxGeometry x="305" y="300" width="110" height="60" as="geometry" />
        </mxCell>
        <mxCell id="0FnL3UWyqO_r0SxXpMAl-14" style="edgeStyle=orthogonalEdgeStyle;rounded=0;orthogonalLoop=1;jettySize=auto;html=1;exitX=1;exitY=0.5;exitDx=0;exitDy=0;entryX=0;entryY=0.5;entryDx=0;entryDy=0;" edge="1" parent="1" source="0FnL3UWyqO_r0SxXpMAl-3" target="0FnL3UWyqO_r0SxXpMAl-2">
          <mxGeometry relative="1" as="geometry" />
        </mxCell>
        <mxCell id="0FnL3UWyqO_r0SxXpMAl-3" value="&lt;b&gt;&lt;font style=&quot;font-size: 29px;&quot; face=&quot;Times New Roman&quot;&gt;-&lt;/font&gt;&lt;/b&gt;" style="ellipse;whiteSpace=wrap;html=1;aspect=fixed;" vertex="1" parent="1">
          <mxGeometry x="230" y="305" width="50" height="50" as="geometry" />
        </mxCell>
        <mxCell id="0FnL3UWyqO_r0SxXpMAl-9" style="edgeStyle=orthogonalEdgeStyle;rounded=0;orthogonalLoop=1;jettySize=auto;html=1;exitX=1;exitY=0.5;exitDx=0;exitDy=0;" edge="1" parent="1" source="0FnL3UWyqO_r0SxXpMAl-4">
          <mxGeometry relative="1" as="geometry">
            <mxPoint x="560" y="405.20000000000005" as="targetPoint" />
          </mxGeometry>
        </mxCell>
        <mxCell id="0FnL3UWyqO_r0SxXpMAl-4" value="&lt;b&gt;&lt;font style=&quot;font-size: 29px;&quot; face=&quot;Times New Roman&quot;&gt;+&lt;/font&gt;&lt;/b&gt;" style="ellipse;whiteSpace=wrap;html=1;aspect=fixed;" vertex="1" parent="1">
          <mxGeometry x="440" y="380" width="50" height="50" as="geometry" />
        </mxCell>
        <mxCell id="0FnL3UWyqO_r0SxXpMAl-5" value="" style="endArrow=classic;html=1;rounded=0;entryX=0.064;entryY=0.268;entryDx=0;entryDy=0;entryPerimeter=0;" edge="1" parent="1" target="0FnL3UWyqO_r0SxXpMAl-3">
          <mxGeometry width="50" height="50" relative="1" as="geometry">
            <mxPoint x="120" y="318" as="sourcePoint" />
            <mxPoint x="120" y="310" as="targetPoint" />
          </mxGeometry>
        </mxCell>
        <mxCell id="0FnL3UWyqO_r0SxXpMAl-6" value="" style="endArrow=classic;html=1;rounded=0;entryX=0.064;entryY=0.268;entryDx=0;entryDy=0;entryPerimeter=0;" edge="1" parent="1">
          <mxGeometry width="50" height="50" relative="1" as="geometry">
            <mxPoint x="120" y="340" as="sourcePoint" />
            <mxPoint x="233" y="340" as="targetPoint" />
          </mxGeometry>
        </mxCell>
        <mxCell id="0FnL3UWyqO_r0SxXpMAl-7" value="" style="endArrow=classic;html=1;rounded=0;entryX=0.111;entryY=0.82;entryDx=0;entryDy=0;entryPerimeter=0;" edge="1" parent="1" target="0FnL3UWyqO_r0SxXpMAl-4">
          <mxGeometry width="50" height="50" relative="1" as="geometry">
            <mxPoint x="120" y="420" as="sourcePoint" />
            <mxPoint x="233" y="420" as="targetPoint" />
          </mxGeometry>
        </mxCell>
        <mxCell id="0FnL3UWyqO_r0SxXpMAl-10" value="&lt;font face=&quot;Times New Roman&quot;&gt;&lt;i&gt;x&lt;/i&gt;&lt;/font&gt;" style="text;html=1;align=center;verticalAlign=middle;resizable=0;points=[];autosize=1;strokeColor=none;fillColor=none;" vertex="1" parent="1">
          <mxGeometry x="96" y="302" width="30" height="30" as="geometry" />
        </mxCell>
        <mxCell id="0FnL3UWyqO_r0SxXpMAl-11" value="&lt;i&gt;&lt;font face=&quot;Times New Roman&quot;&gt;m&lt;/font&gt;&lt;/i&gt;" style="text;html=1;align=center;verticalAlign=middle;resizable=0;points=[];autosize=1;strokeColor=none;fillColor=none;" vertex="1" parent="1">
          <mxGeometry x="96" y="324" width="30" height="30" as="geometry" />
        </mxCell>
        <mxCell id="0FnL3UWyqO_r0SxXpMAl-12" value="&lt;i&gt;&lt;font face=&quot;Times New Roman&quot;&gt;R&lt;sub&gt;m&lt;/sub&gt;&lt;/font&gt;&lt;/i&gt;" style="text;html=1;align=center;verticalAlign=middle;resizable=0;points=[];autosize=1;strokeColor=none;fillColor=none;" vertex="1" parent="1">
          <mxGeometry x="91" y="405" width="40" height="30" as="geometry" />
        </mxCell>
        <mxCell id="0FnL3UWyqO_r0SxXpMAl-13" value="&lt;i&gt;&lt;font face=&quot;Times New Roman&quot;&gt;R&lt;sub&gt;m&lt;/sub&gt;&#39;&lt;/font&gt;&lt;/i&gt;" style="text;html=1;align=center;verticalAlign=middle;resizable=0;points=[];autosize=1;strokeColor=none;fillColor=none;" vertex="1" parent="1">
          <mxGeometry x="551" y="390" width="40" height="30" as="geometry" />
        </mxCell>
      </root>
    </mxGraphModel>
  </diagram>
</mxfile>
